<svg width="14" height="7" viewBox="0 0 14 7" fill="none" xmlns="http://www.w3.org/2000/svg">
<path d="M13.0246 0.448904C12.9816 0.346528 12.9092 0.259181 12.8166 0.197869C12.724 0.136558 12.6153 0.104025 12.5043 0.104373H1.25429C1.14324 0.104025 1.03457 0.136558 0.941977 0.197869C0.849384 0.259181 0.777011 0.346528 0.733979 0.448904C0.693453 0.552804 0.683172 0.666054 0.704325 0.775553C0.725479 0.885052 0.777201 0.986324 0.85351 1.06765L6.47851 6.69265C6.58603 6.79661 6.72973 6.85473 6.87929 6.85473C7.02885 6.85473 7.17256 6.79661 7.28007 6.69265L12.9051 1.06765C12.9814 0.986324 13.0331 0.885052 13.0543 0.775553C13.0754 0.666054 13.0651 0.552804 13.0246 0.448904V0.448904Z" fill="#15130B"/>
</svg>
