<svg width="20" height="20" viewBox="0 0 20 20" fill="none" xmlns="http://www.w3.org/2000/svg">
<path d="M18.6541 14.1638C19.2987 12.841 19.6322 11.3883 19.6291 9.91688C19.6261 7.76923 18.9156 5.68238 17.6073 3.97922C16.299 2.27605 14.4659 1.0515 12.3916 0.495005H12.3447C10.8237 0.0945576 9.22829 0.0687494 7.69514 0.41979C6.16198 0.770831 4.73677 1.48826 3.54155 2.51063L3.41968 2.62313C1.93559 3.93293 0.885767 5.66378 0.41003 7.58518C-0.0657078 9.50657 0.0552192 11.5273 0.756705 13.3783C1.45819 15.2292 2.70694 16.8225 4.33664 17.946C5.96634 19.0694 7.89964 19.6697 9.87905 19.6669H10.1041C11.8744 19.6231 13.5997 19.0994 15.0956 18.1517C16.5916 17.2039 17.802 15.8677 18.5978 14.2856V14.2856L18.6541 14.1638ZM18.1291 9.91688C18.1273 10.8991 17.9528 11.8733 17.6134 12.795L13.2634 10.1231C13.084 10.0103 12.8827 9.93685 12.6728 9.90751L10.5353 9.62626C10.2607 9.59075 9.98171 9.63145 9.72873 9.74388C9.47574 9.85632 9.25856 10.0362 9.10093 10.2638H8.29468L7.93843 9.52313C7.83863 9.3186 7.69414 9.13911 7.51564 8.99794C7.33714 8.85676 7.1292 8.75751 6.90718 8.7075L6.28843 8.57625L6.5228 8.02313C6.58119 7.88735 6.67793 7.77157 6.80116 7.68997C6.92439 7.60837 7.06875 7.56451 7.21655 7.56376H8.72593C8.97845 7.56263 9.22665 7.49816 9.4478 7.37626L10.5916 6.73875C10.6925 6.68404 10.7868 6.61799 10.8728 6.54188L13.3947 4.25438C13.6142 4.06191 13.7715 3.8085 13.8466 3.52637C13.9218 3.24425 13.9113 2.94616 13.8166 2.67C15.1208 3.37835 16.2097 4.42539 16.9687 5.7008C17.7277 6.9762 18.1285 8.43273 18.1291 9.91688ZM1.62905 9.91688C1.62691 8.62322 1.93217 7.34756 2.51968 6.19501L3.49468 8.81063C3.58384 9.04491 3.72995 9.2533 3.91981 9.41697C4.10968 9.58065 4.33731 9.69446 4.58218 9.74813L5.0978 9.86063H5.10718L6.23218 10.1044C6.34353 10.1269 6.44811 10.1751 6.53761 10.245C6.62711 10.315 6.69908 10.4049 6.7478 10.5075L6.94468 10.92C7.06872 11.1725 7.26085 11.3852 7.49939 11.5343C7.73793 11.6834 8.01338 11.7629 8.29468 11.7638H8.40718L7.6853 13.3763C7.56332 13.6437 7.52315 13.9413 7.56986 14.2316C7.61657 14.5218 7.74806 14.7918 7.9478 15.0075L9.45718 16.6388C9.53489 16.7256 9.59208 16.8289 9.62454 16.9409C9.65699 17.0528 9.66387 17.1706 9.64468 17.2856L9.47593 18.1575C7.36092 18.0517 5.36733 17.1376 3.90701 15.604C2.44669 14.0705 1.63122 12.0345 1.62905 9.91688V9.91688Z" fill="#15130B"/>
</svg>
